# xmcd CD database file
#
# Track frame offsets:
#	150
#	21012
#	49420
#	72305
#	92880
#	113665
#	133095
#	164130
#	187062
#	217112
#
# Disc length: 3199 seconds
#
# Revision: 0
# Processed by: cddbd v1.5.2PL0 Copyright (c) Steve Scherf et al.
# Submitted via: CDex 1.70beta2
#
DISCID=9c0c7d0a
DTITLE=Ike Quebec - From Hackensack To Englewood Cliffs
DYEAR=1900
DGENRE=Jazz
TTITLE0=A Light Reprieve
TTITLE1=Buzzard Lope
TTITLE2=Blue Monday
TTITLE3=Zonky
TTITLE4=Later For The Rock
TTITLE5=Sweet And Lovely
TTITLE6=Deat John
TTITLE7=Blue Friday
TTITLE8=Cry Me A River
TTITLE9=Uptight
EXTD=
EXTT0=
EXTT1=
EXTT2=
EXTT3=
EXTT4=
EXTT5=
EXTT6=
EXTT7=
EXTT8=
EXTT9=
PLAYORDER=
